<svg width="16" height="13" viewBox="0 0 16 13" fill="none" xmlns="http://www.w3.org/2000/svg">
<path fill-rule="evenodd" clip-rule="evenodd" d="M14 0C15.1046 6.89364e-07 16 0.895431 16 2V11L15.9893 11.2041C15.887 12.2128 15.0357 13 14 13H2C0.89543 13 0 12.1046 0 11V2C8.05332e-09 0.89543 0.89543 0 2 0H14ZM2 1C1.44772 1 1 1.44772 1 2V2.47461L7.51074 6.61816C7.66084 6.70316 7.83032 6.74797 8.00293 6.74805C8.17806 6.74805 8.35021 6.70161 8.50195 6.61426L15 2.47461V2C15 1.44772 14.5523 1 14 1H2Z" fill="#1F1F1F"/>
</svg>
