<svg width="16" height="17" viewBox="0 0 16 17" fill="none" xmlns="http://www.w3.org/2000/svg">
<path fill-rule="evenodd" clip-rule="evenodd" d="M8 0.5C12.4183 0.5 16 4.08172 16 8.5C16 12.9183 12.4183 16.5 8 16.5C3.58172 16.5 0 12.9183 0 8.5C0 4.08172 3.58172 0.5 8 0.5ZM11.2708 5.31563C10.9699 5.32093 10.5081 5.4822 8.28646 6.40625C7.50825 6.72994 5.95274 7.39965 3.62083 8.41563C3.24256 8.5661 3.04427 8.71335 3.02604 8.85729C2.99137 9.13387 3.38962 9.22048 3.89063 9.38333C4.29908 9.5161 4.84876 9.67091 5.13438 9.67708C5.39342 9.68261 5.6829 9.57647 6.00208 9.35729C8.18093 7.88651 9.30531 7.14215 9.37604 7.12604C9.42586 7.11473 9.49489 7.10113 9.54167 7.14271C9.58844 7.18429 9.58412 7.26325 9.57917 7.28438C9.53698 7.45535 7.49273 9.31522 7.375 9.4375C6.92489 9.90498 6.41236 10.191 7.20208 10.7115C7.88549 11.1618 8.28349 11.4489 8.9875 11.9104C9.43746 12.2054 9.79063 12.5553 10.2552 12.5125C10.4689 12.4927 10.69 12.2917 10.8021 11.6927C11.0671 10.2759 11.5879 7.20561 11.7083 5.94063C11.7189 5.83 11.7054 5.68848 11.6948 5.62604C11.6842 5.56388 11.6619 5.47502 11.5813 5.40938C11.4854 5.3316 11.337 5.31446 11.2708 5.31563Z" fill="#1F1F1F"/>
</svg>
