<svg width="16" height="17" viewBox="0 0 16 17" fill="none" xmlns="http://www.w3.org/2000/svg">
<path fill-rule="evenodd" clip-rule="evenodd" d="M1.11357 1.62471C0 2.74942 0 4.55962 0 8.18V8.82C0 12.4404 0 14.2506 1.11357 15.3753C2.22715 16.5 4.01942 16.5 7.60396 16.5H8.23762C11.8222 16.5 13.6144 16.5 14.728 15.3753C15.8416 14.2506 15.8416 12.4404 15.8416 8.82V8.18C15.8416 4.55962 15.8416 2.74942 14.728 1.62471C13.6144 0.5 11.8222 0.5 8.23762 0.5H7.60396C4.01942 0.5 2.22715 0.5 1.11357 1.62471ZM2.6733 5.3667C2.7591 9.5267 4.81849 12.0267 8.42905 12.0267H8.63371V9.64669C9.96044 9.78002 10.9637 10.76 11.3663 12.0267H13.241C12.7261 10.1334 11.3729 9.08669 10.528 8.68669C11.3729 8.19336 12.561 6.99336 12.8448 5.3667H11.1418C10.7722 6.6867 9.67661 7.88669 8.63371 8.00002V5.3667H6.93068V9.98002C5.87458 9.71336 4.54128 8.42003 4.48187 5.3667H2.6733Z" fill="#1F1F1F"/>
</svg>
